<svg width="37" height="50" viewBox="0 0 37 50" fill="none" xmlns="http://www.w3.org/2000/svg">
<path d="M12.735 40.495C11.145 40.495 9.525 40.315 7.875 39.955C6.255 39.595 4.845 39.055 3.645 38.335C2.685 37.825 2.085 37.195 1.845 36.445C1.605 35.665 1.635 34.945 1.935 34.285C2.265 33.625 2.79 33.16 3.51 32.89C4.23 32.59 5.055 32.665 5.985 33.115C7.155 33.685 8.265 34.09 9.315 34.33C10.365 34.57 11.415 34.69 12.465 34.69C16.125 34.69 17.955 33.325 17.955 30.595C17.955 28.075 16.245 26.815 12.825 26.815H10.17C9.18 26.815 8.415 26.575 7.875 26.095C7.365 25.585 7.11 24.895 7.11 24.025C7.11 23.125 7.365 22.435 7.875 21.955C8.415 21.445 9.18 21.19 10.17 21.19H12.15C13.65 21.19 14.835 20.845 15.705 20.155C16.575 19.465 17.01 18.505 17.01 17.275C17.01 14.815 15.405 13.585 12.195 13.585C11.205 13.585 10.245 13.705 9.315 13.945C8.415 14.155 7.425 14.545 6.345 15.115C5.505 15.535 4.755 15.61 4.095 15.34C3.435 15.07 2.94 14.605 2.61 13.945C2.31 13.285 2.25 12.595 2.43 11.875C2.61 11.155 3.135 10.555 4.005 10.075C6.615 8.545 9.555 7.78 12.825 7.78C16.245 7.78 18.915 8.545 20.835 10.075C22.755 11.605 23.715 13.705 23.715 16.375C23.715 18.025 23.295 19.48 22.455 20.74C21.615 22 20.445 22.915 18.945 23.485C20.745 23.995 22.14 24.94 23.13 26.32C24.15 27.67 24.66 29.305 24.66 31.225C24.66 34.105 23.595 36.37 21.465 38.02C19.335 39.67 16.425 40.495 12.735 40.495Z" fill="#E3E3E3"/>
</svg>
