<svg width="37" height="50" viewBox="0 0 37 50" fill="none" xmlns="http://www.w3.org/2000/svg">
<path d="M7.065 40C5.085 40 4.095 39.04 4.095 37.12C4.095 35.23 5.085 34.285 7.065 34.285H11.61V16.015L8.325 17.995C7.455 18.505 6.675 18.64 5.985 18.4C5.295 18.16 4.77 17.71 4.41 17.05C4.05 16.39 3.945 15.685 4.095 14.935C4.245 14.155 4.74 13.495 5.58 12.955L11.835 9.175C12.465 8.785 13.095 8.47 13.725 8.23C14.385 7.99 15.03 7.87 15.66 7.87C16.56 7.87 17.265 8.11 17.775 8.59C18.315 9.07 18.585 9.775 18.585 10.705V34.285H22.68C24.63 34.285 25.605 35.23 25.605 37.12C25.605 39.04 24.63 40 22.68 40H7.065Z" fill="#E3E3E3"/>
</svg>
