<svg width="31" height="30" viewBox="0 0 31 30" fill="none" xmlns="http://www.w3.org/2000/svg">
<circle cx="15" cy="15" r="15" fill="white"/>
<mask id="mask0_8496_5798" style="mask-type:alpha" maskUnits="userSpaceOnUse" x="5" y="5" width="20" height="20">
<rect x="5" y="5" width="20" height="20" fill="#C4C4C4"/>
</mask>
<g mask="url(#mask0_8496_5798)">
<path d="M15.3296 8.50994C14.2827 8.67327 13.459 9.28648 13.0233 10.2264C12.7098 10.9083 12.646 11.3238 12.646 12.7365V13.7366H11.7453C11.2457 13.7366 10.8127 13.748 10.7781 13.7624C10.7409 13.7795 10.6851 13.8197 10.6559 13.8541C10.6001 13.9171 10.6001 13.9371 10.6001 15.2381C10.6001 16.4473 10.6054 16.5648 10.6479 16.6192C10.7383 16.7424 10.7728 16.7453 11.7267 16.7453H12.646V19.84V22.9347L12.723 23.0264L12.8001 23.121L14.0383 23.1296C15.1303 23.1353 15.2871 23.1325 15.3588 23.0923C15.5235 23.0006 15.5156 23.1439 15.5156 19.797V16.7453H16.5784C17.3436 16.7453 17.6571 16.7367 17.7076 16.7109C17.8537 16.6393 17.8537 16.6278 17.8537 15.2295V13.9371L17.7767 13.8455L17.6996 13.7509L16.6049 13.7423L15.5129 13.7337L15.5209 12.8082L15.5288 11.8855L15.6086 11.7164C15.6962 11.533 15.8424 11.4098 16.039 11.3525C16.0948 11.3353 16.488 11.3181 16.9105 11.3124C17.3356 11.3038 17.7102 11.2923 17.7421 11.2837C17.7767 11.2751 17.8351 11.235 17.8697 11.1949L17.9334 11.1204V9.8825C17.9334 8.66754 17.9334 8.64462 17.8776 8.58158C17.8484 8.54719 17.7926 8.50707 17.7554 8.48988C17.6491 8.4469 15.6272 8.46409 15.3296 8.50994Z" fill="#00730C"/>
</g>
</svg>
