<svg width="31" height="30" viewBox="0 0 31 30" fill="none" xmlns="http://www.w3.org/2000/svg">
<circle cx="15" cy="15" r="14.5" stroke="white"/>
<mask id="mask0_8496_5812" style="mask-type:alpha" maskUnits="userSpaceOnUse" x="5" y="5" width="21" height="21">
<rect x="5.1333" y="5.7998" width="20" height="20" fill="#C4C4C4"/>
</mask>
<g mask="url(#mask0_8496_5812)">
<path d="M22.7551 15.4934V13.3384H21.6327V15.4934H19.3879V16.5709H21.6327V18.7259H22.7551V16.5709H24.9999V15.4934H22.7551Z" fill="white"/>
<path d="M11.7523 15.3611V17.8944H15.3357C14.8125 19.3688 13.404 20.4278 11.7523 20.4278C9.65721 20.4278 7.95228 18.7228 7.95228 16.6278C7.95228 14.5327 9.65721 12.8278 11.7523 12.8278C12.6605 12.8278 13.5345 13.1533 14.2134 13.7448L15.8778 11.8347C14.7378 10.8416 13.2735 10.2944 11.7523 10.2944C8.26008 10.2944 5.41895 13.1356 5.41895 16.6278C5.41895 20.12 8.26008 22.9611 11.7523 22.9611C15.2445 22.9611 18.0856 20.12 18.0856 16.6278V15.3611H11.7523Z" fill="white"/>
</g>
</svg>
