<svg width="31" height="30" viewBox="0 0 31 30" fill="none" xmlns="http://www.w3.org/2000/svg">
<circle cx="15" cy="15" r="14.5" fill="white"/>
<path d="M21.0836 21.3311V21.3306H21.0869V16.4406C21.0869 14.0483 20.5719 12.2056 17.7753 12.2056C16.4308 12.2056 15.5286 12.9433 15.1603 13.6428H15.1214V12.4289H12.4697V21.3306H15.2308V16.9228C15.2308 15.7622 15.4508 14.64 16.8881 14.64C18.3042 14.64 18.3253 15.9645 18.3253 16.9972V21.3311H21.0836Z" fill="#00730C"/>
<path d="M7.88696 12.4297H10.6514V21.3314H7.88696V12.4297Z" fill="#00730C"/>
<path d="M9.26762 7.77637C8.38373 7.77637 7.6665 8.49359 7.6665 9.37748C7.6665 10.2614 8.38373 10.9936 9.26762 10.9936C10.1515 10.9936 10.8687 10.2614 10.8687 9.37748C10.8682 8.49359 10.1509 7.77637 9.26762 7.77637V7.77637Z" fill="#00730C"/>
</svg>
