<svg width="31" height="30" viewBox="0 0 31 30" fill="none" xmlns="http://www.w3.org/2000/svg">
<circle cx="15" cy="15" r="14.5" fill="white"/>
<mask id="mask0_8496_5803" style="mask-type:alpha" maskUnits="userSpaceOnUse" x="6" y="8" width="17" height="17">
<rect x="6.84326" y="8.17627" width="16" height="16" fill="#C4C4C4"/>
</mask>
<g mask="url(#mask0_8496_5803)">
<path d="M22.8433 11.2153C22.2483 11.4763 21.6143 11.6493 20.9533 11.7333C21.6333 11.3273 22.1523 10.6893 22.3963 9.92027C21.7623 10.2983 21.0623 10.5653 20.3163 10.7143C19.7143 10.0733 18.8563 9.67627 17.9203 9.67627C16.1043 9.67627 14.6423 11.1503 14.6423 12.9573C14.6423 13.2173 14.6643 13.4673 14.7183 13.7053C11.9913 13.5723 9.57826 12.2653 7.95726 10.2743C7.67426 10.7653 7.50826 11.3273 7.50826 11.9323C7.50826 13.0683 8.09326 14.0753 8.96526 14.6583C8.43826 14.6483 7.92126 14.4953 7.48326 14.2543C7.48326 14.2643 7.48326 14.2773 7.48326 14.2903C7.48326 15.8843 8.62026 17.2083 10.1113 17.5133C9.84426 17.5863 9.55326 17.6213 9.25126 17.6213C9.04126 17.6213 8.82926 17.6093 8.63026 17.5653C9.05526 18.8643 10.2613 19.8193 11.6953 19.8503C10.5793 20.7233 9.16226 21.2493 7.62826 21.2493C7.35926 21.2493 7.10126 21.2373 6.84326 21.2043C8.29626 22.1413 10.0183 22.6763 11.8753 22.6763C17.9113 22.6763 21.2113 17.6763 21.2113 13.3423C21.2113 13.1973 21.2063 13.0573 21.1993 12.9183C21.8503 12.4563 22.3973 11.8793 22.8433 11.2153Z" fill="#00730C"/>
</g>
</svg>
